<svg width="48" height="48" viewBox="0 0 48 48" fill="none" xmlns="http://www.w3.org/2000/svg">
<path d="M25.028 14C26.153 14.003 26.724 14.009 27.217 14.023L27.411 14.03C27.635 14.038 27.856 14.048 28.123 14.06C29.187 14.11 29.913 14.278 30.55 14.525C31.21 14.779 31.766 15.123 32.322 15.678C32.8305 16.1779 33.224 16.7826 33.475 17.45C33.722 18.087 33.89 18.813 33.94 19.878C33.952 20.144 33.962 20.365 33.97 20.59L33.976 20.784C33.991 21.276 33.997 21.847 33.999 22.972L34 23.718V25.028C34.0025 25.7574 33.9948 26.4868 33.977 27.216L33.971 27.41C33.963 27.635 33.953 27.856 33.941 28.122C33.891 29.187 33.721 29.912 33.475 30.55C33.2247 31.2178 32.8311 31.8226 32.322 32.322C31.822 32.8303 31.2173 33.2238 30.55 33.475C29.913 33.722 29.187 33.89 28.123 33.94C27.8857 33.9512 27.6484 33.9612 27.411 33.97L27.217 33.976C26.724 33.99 26.153 33.997 25.028 33.999L24.282 34H22.973C22.2433 34.0025 21.5135 33.9949 20.784 33.977L20.59 33.971C20.3526 33.962 20.1153 33.9517 19.878 33.94C18.814 33.89 18.088 33.722 17.45 33.475C16.7827 33.2244 16.1782 32.8308 15.679 32.322C15.17 31.8223 14.7762 31.2176 14.525 30.55C14.278 29.913 14.11 29.187 14.06 28.122C14.0489 27.8847 14.0389 27.6474 14.03 27.41L14.025 27.216C14.0066 26.4868 13.9982 25.7574 14 25.028V22.972C13.9972 22.2426 14.0045 21.5132 14.022 20.784L14.029 20.59C14.037 20.365 14.047 20.144 14.059 19.878C14.109 18.813 14.277 18.088 14.524 17.45C14.7751 16.7819 15.1697 16.177 15.68 15.678C16.1791 15.1695 16.7831 14.776 17.45 14.525C18.088 14.278 18.813 14.11 19.878 14.06C20.144 14.048 20.366 14.038 20.59 14.03L20.784 14.024C21.5132 14.0062 22.2426 13.9986 22.972 14.001L25.028 14ZM24 19C22.6739 19 21.4021 19.5268 20.4645 20.4645C19.5268 21.4021 19 22.6739 19 24C19 25.3261 19.5268 26.5979 20.4645 27.5355C21.4021 28.4732 22.6739 29 24 29C25.3261 29 26.5978 28.4732 27.5355 27.5355C28.4732 26.5979 29 25.3261 29 24C29 22.6739 28.4732 21.4021 27.5355 20.4645C26.5978 19.5268 25.3261 19 24 19ZM24 21C24.394 20.9999 24.7841 21.0775 25.1481 21.2282C25.5121 21.3789 25.8428 21.5998 26.1215 21.8783C26.4001 22.1569 26.6211 22.4875 26.7719 22.8515C26.9228 23.2154 27.0004 23.6055 27.0005 23.9995C27.0006 24.3935 26.923 24.7836 26.7723 25.1476C26.6216 25.5116 26.4007 25.8423 26.1222 26.121C25.8436 26.3996 25.513 26.6206 25.149 26.7714C24.7851 26.9223 24.395 26.9999 24.001 27C23.2053 27 22.4423 26.6839 21.8797 26.1213C21.3171 25.5587 21.001 24.7956 21.001 24C21.001 23.2044 21.3171 22.4413 21.8797 21.8787C22.4423 21.3161 23.2053 21 24.001 21M29.251 17.5C28.9195 17.5 28.6015 17.6317 28.3671 17.8661C28.1327 18.1005 28.001 18.4185 28.001 18.75C28.001 19.0815 28.1327 19.3995 28.3671 19.6339C28.6015 19.8683 28.9195 20 29.251 20C29.5825 20 29.9005 19.8683 30.1349 19.6339C30.3693 19.3995 30.501 19.0815 30.501 18.75C30.501 18.4185 30.3693 18.1005 30.1349 17.8661C29.9005 17.6317 29.5825 17.5 29.251 17.5Z" fill="#FEFCE8"/>
</svg>
